<svg width="91" height="40" viewBox="0 0 91 40" fill="none" xmlns="http://www.w3.org/2000/svg">
<path d="M4.90497 39.806L0.251897 23.3902L4.88575 22.0767C6.31386 21.6719 7.66609 21.6297 8.94245 21.95C10.2188 22.2703 11.319 22.9289 12.243 23.9256C13.1746 24.9202 13.8582 26.1718 14.294 27.6805L14.5912 28.729C15.0301 30.2774 15.114 31.7193 14.8429 33.0548C14.5793 34.3881 13.9798 35.5244 13.0442 36.4636C12.1161 37.4006 10.9176 38.0855 9.44863 38.5181L4.90497 39.806ZM2.92155 24.558L6.56795 37.4223L8.84542 36.7767C10.5141 36.3038 11.6636 35.4176 12.2941 34.1183C12.9321 32.8169 12.9795 31.2078 12.4362 29.2911L12.1646 28.3328C11.6362 26.4687 10.7864 25.1464 9.61508 24.366C8.44916 23.5759 7.05982 23.4012 5.44706 23.8421L2.92155 24.558ZM17.4177 29.5478C17.0789 28.3527 17.0073 27.2118 17.2027 26.1252C17.4057 25.0364 17.8508 24.1144 18.5381 23.3593C19.233 22.602 20.1178 22.0711 21.1926 21.7664C22.8538 21.2956 24.3584 21.4903 25.7066 22.3505C27.0623 23.2086 28.0108 24.5923 28.5519 26.5014L28.5935 26.648C28.9301 27.8356 29.0034 28.9679 28.8133 30.0449C28.6287 31.1123 28.1862 32.0294 27.486 32.7963C26.7933 33.5611 25.8983 34.099 24.8009 34.4101C23.1473 34.8788 21.6426 34.6841 20.2869 33.826C18.9387 32.9657 17.9961 31.5885 17.4592 29.6944L17.4177 29.5478ZM19.5851 29.2014C19.9686 30.5544 20.5884 31.5521 21.4445 32.1945C22.3081 32.8349 23.266 33.0059 24.3183 32.7076C25.3781 32.4072 26.1028 31.7552 26.4923 30.7516C26.8796 29.7404 26.8613 28.487 26.4374 26.9912C26.0581 25.6533 25.4319 24.6615 24.5586 24.0158C23.6908 23.3604 22.7307 23.1819 21.6784 23.4801C20.6487 23.772 19.9342 24.4171 19.5351 25.4153C19.1359 26.4136 19.1526 27.6756 19.5851 29.2014ZM31.4037 19.1157L31.8435 20.4526C32.4397 19.1468 33.497 18.2787 35.0153 17.8484C36.7215 17.3647 38.0681 17.6895 39.0552 18.8226C39.2949 18.1213 39.6868 17.4986 40.2309 16.9546C40.7826 16.4085 41.5019 16.0097 42.3888 15.7583C45.0647 14.9998 46.8267 16.0311 47.675 18.8519L49.992 27.026L47.9062 27.6172L45.6244 19.5672C45.3773 18.6953 44.9938 18.1016 44.474 17.7861C43.952 17.463 43.2213 17.4347 42.2817 17.701C41.5076 17.9204 40.931 18.3356 40.5519 18.9465C40.1708 19.5499 40.0497 20.2541 40.1885 21.0593L42.4831 29.1544L40.3861 29.7488L38.1202 21.7552C37.6174 19.9813 36.4979 19.3404 34.7616 19.8326C33.3936 20.2203 32.6229 21.0681 32.4496 22.3759L34.9743 31.2828L32.8885 31.874L29.4306 19.6749L31.4037 19.1157ZM55.4151 25.4888L53.3293 26.0801L49.8714 13.881L51.9572 13.2897L55.4151 25.4888ZM48.7851 10.6931C48.6892 10.3549 48.7097 10.0405 48.8466 9.74995C48.9911 9.45729 49.2662 9.25343 49.6721 9.13838C50.078 9.02333 50.4192 9.05248 50.6957 9.22584C50.9722 9.39919 51.1584 9.65499 51.2542 9.99322C51.3501 10.3315 51.3248 10.6432 51.1782 10.9283C51.0317 11.2134 50.7555 11.4135 50.3496 11.5286C49.9437 11.6436 49.6036 11.6182 49.3292 11.4524C49.0623 11.2844 48.881 11.0313 48.7851 10.6931ZM57.2788 11.7813L57.7811 13.2955C58.3808 11.8588 59.4322 10.9273 60.9355 10.5012C63.5136 9.77046 65.2262 10.8563 66.0733 13.7587L68.3583 21.8201L66.2725 22.4113L63.9843 14.3387C63.7275 13.4614 63.3403 12.8688 62.8226 12.5608C62.3124 12.2506 61.6402 12.2138 60.8059 12.4503C60.1294 12.642 59.5867 12.9908 59.1779 13.4964C58.769 14.0021 58.5049 14.5885 58.3854 15.2558L60.8494 23.9485L58.7636 24.5397L55.3058 12.3406L57.2788 11.7813ZM73.7701 20.2861L71.6843 20.8773L68.2264 8.67822L70.3122 8.08699L73.7701 20.2861ZM67.1401 5.49035C67.0442 5.15211 67.0647 4.83773 67.2016 4.5472C67.3461 4.25453 67.6212 4.05068 68.0271 3.93563C68.433 3.82058 68.7742 3.84973 69.0507 4.02309C69.3272 4.19644 69.5134 4.45223 69.6092 4.79047C69.7051 5.12871 69.6798 5.4404 69.5332 5.72555C69.3867 6.01069 69.1105 6.21079 68.7046 6.32584C68.2987 6.44089 67.9586 6.41549 67.6842 6.24966C67.4174 6.08169 67.236 5.82859 67.1401 5.49035ZM78.1446 19.0461L75.1438 8.45929L73.2158 9.00577L72.7588 7.39351L74.6868 6.84703L74.332 5.59555C73.9613 4.2877 74.0243 3.17767 74.5209 2.26548C75.0175 1.35328 75.9047 0.716091 77.1825 0.353901C77.6635 0.217547 78.1589 0.146148 78.6687 0.139703L79.0353 1.86285C78.6629 1.89533 78.2775 1.96804 77.8791 2.08095C77.2026 2.2727 76.7367 2.61996 76.4813 3.12272C76.2238 3.61797 76.1994 4.2339 76.4082 4.9705L76.7725 6.2558L79.377 5.51758L79.834 7.12984L77.2295 7.86807L80.2304 18.4549L78.1446 19.0461ZM88.2713 12.8748L88.5207 2.92579L90.753 2.29302L89.8401 17.7651C89.6562 20.0097 88.7375 21.3664 87.0839 21.8351L86.6797 21.9131L85.8602 21.9871L85.3808 20.2959L85.9573 20.1812C86.6638 19.9809 87.1721 19.6826 87.482 19.2862C87.7994 18.8876 87.9783 18.2726 88.0186 17.441L88.1293 16.0698L80.3579 5.23954L82.6353 4.59399L88.2713 12.8748Z" fill="#DDDDDD"/>
</svg>
